<svg width="375" height="209" viewBox="0 0 375 209" fill="none" xmlns="http://www.w3.org/2000/svg">
<rect width="375" height="209" fill="black"/>
<path d="M138.644 86.0984L132.128 92.762V102.113H127V66H132.128V86.2058L151.571 66H157.447L142.17 82.2292L158.515 102.113H152.532L138.644 86.0984Z" fill="white"/>
<path d="M195.905 99.2107L197.935 95.3415C200.285 96.9537 203.918 98.136 207.443 98.136C212.037 98.136 213.853 96.7388 213.853 94.3742C213.853 88.248 196.653 93.5144 196.653 82.6592C196.653 77.7152 201.033 74.4908 207.977 74.4908C211.503 74.4908 215.562 75.4581 217.912 76.9628L215.776 80.832C213.319 79.2199 210.648 78.6825 207.977 78.6825C203.704 78.6825 201.567 80.2946 201.567 82.4442C201.567 88.8929 218.767 83.6265 218.767 94.2668C218.767 99.2107 214.28 102.328 207.016 102.328C202.636 102.435 198.149 101.038 195.905 99.2107Z" fill="white"/>
<path d="M249 85.5609V102.112H244.299V98.4582C242.697 100.93 239.599 102.327 235.326 102.327C229.13 102.327 225.284 98.9956 225.284 94.2666C225.284 89.86 228.061 86.3132 236.18 86.3132H243.979V85.3459C243.979 81.1543 241.522 78.7898 236.715 78.7898C233.51 78.7898 230.198 79.972 228.061 81.6917L226.031 77.9299C228.809 75.6729 232.869 74.3832 237.249 74.3832C244.834 74.4907 249 78.1449 249 85.5609ZM244.086 93.7292V89.86H236.501C231.587 89.86 230.198 91.7946 230.198 94.0516C230.198 96.7386 232.441 98.4582 236.18 98.4582C239.919 98.5657 242.911 96.9535 244.086 93.7292Z" fill="white"/>
<path d="M180.095 94.9118V102.22L183.193 100.393V93.0847L180.095 94.9118Z" fill="white"/>
<path d="M188.641 85.991L175.928 78.575L168.877 74.4908L161.933 86.6358L162.04 98.0285L174.646 105.444L175.928 104.692V93.9443L181.59 83.9489L187.359 87.2807V98.0285L188.641 97.2761V85.991Z" fill="white"/>
<path d="M144.685 130.036C143.901 130.036 143.185 129.848 142.537 129.472C141.897 129.096 141.389 128.584 141.013 127.936C140.645 127.288 140.461 126.576 140.461 125.8C140.461 125.024 140.645 124.312 141.013 123.664C141.389 123.016 141.901 122.504 142.549 122.128C143.197 121.752 143.917 121.564 144.709 121.564C145.501 121.564 146.217 121.748 146.857 122.116C147.505 122.484 148.013 122.992 148.381 123.64C148.749 124.28 148.933 124.992 148.933 125.776C148.933 126.56 148.745 127.28 148.369 127.936C147.993 128.584 147.481 129.096 146.833 129.472C146.185 129.848 145.469 130.036 144.685 130.036ZM144.685 129.496C145.373 129.496 145.997 129.332 146.557 129.004C147.117 128.676 147.557 128.228 147.877 127.66C148.205 127.092 148.369 126.464 148.369 125.776C148.369 125.088 148.209 124.464 147.889 123.904C147.577 123.344 147.141 122.904 146.581 122.584C146.029 122.264 145.405 122.104 144.709 122.104C144.021 122.104 143.393 122.268 142.825 122.596C142.265 122.924 141.825 123.372 141.505 123.94C141.185 124.5 141.025 125.12 141.025 125.8C141.025 126.48 141.185 127.104 141.505 127.672C141.825 128.232 142.265 128.676 142.825 129.004C143.385 129.332 144.005 129.496 144.685 129.496ZM144.817 128.272C144.329 128.272 143.893 128.168 143.509 127.96C143.125 127.752 142.825 127.46 142.609 127.084C142.393 126.708 142.285 126.28 142.285 125.8C142.285 125.32 142.393 124.892 142.609 124.516C142.825 124.14 143.125 123.848 143.509 123.64C143.893 123.432 144.329 123.328 144.817 123.328C145.233 123.328 145.613 123.416 145.957 123.592C146.301 123.768 146.569 124.004 146.761 124.3L146.077 124.792C145.789 124.36 145.365 124.144 144.805 124.144C144.341 124.144 143.957 124.296 143.653 124.6C143.349 124.904 143.197 125.304 143.197 125.8C143.197 126.296 143.349 126.696 143.653 127C143.957 127.304 144.341 127.456 144.805 127.456C145.365 127.456 145.789 127.24 146.077 126.808L146.761 127.288C146.569 127.592 146.301 127.832 145.957 128.008C145.613 128.184 145.233 128.272 144.817 128.272ZM159.209 128.956V130H153.173V129.184L156.593 125.884C157.009 125.484 157.289 125.14 157.433 124.852C157.577 124.556 157.649 124.26 157.649 123.964C157.649 123.524 157.493 123.184 157.181 122.944C156.877 122.696 156.437 122.572 155.861 122.572C154.933 122.572 154.217 122.876 153.713 123.484L152.897 122.776C153.225 122.376 153.653 122.064 154.181 121.84C154.717 121.616 155.313 121.504 155.969 121.504C156.849 121.504 157.549 121.716 158.069 122.14C158.589 122.556 158.849 123.124 158.849 123.844C158.849 124.292 158.753 124.716 158.561 125.116C158.369 125.516 158.005 125.972 157.469 126.484L154.901 128.956H159.209ZM163.592 130.096C162.928 130.096 162.336 129.928 161.816 129.592C161.304 129.248 160.9 128.752 160.604 128.104C160.308 127.456 160.16 126.688 160.16 125.8C160.16 124.912 160.308 124.144 160.604 123.496C160.9 122.848 161.304 122.356 161.816 122.02C162.336 121.676 162.928 121.504 163.592 121.504C164.248 121.504 164.832 121.676 165.344 122.02C165.864 122.356 166.272 122.848 166.568 123.496C166.864 124.144 167.012 124.912 167.012 125.8C167.012 126.688 166.864 127.456 166.568 128.104C166.272 128.752 165.864 129.248 165.344 129.592C164.832 129.928 164.248 130.096 163.592 130.096ZM163.592 129.028C164.264 129.028 164.8 128.752 165.2 128.2C165.608 127.648 165.812 126.848 165.812 125.8C165.812 124.752 165.608 123.952 165.2 123.4C164.8 122.848 164.264 122.572 163.592 122.572C162.912 122.572 162.368 122.848 161.96 123.4C161.56 123.952 161.36 124.752 161.36 125.8C161.36 126.848 161.56 127.648 161.96 128.2C162.368 128.752 162.912 129.028 163.592 129.028ZM174.033 128.956V130H167.997V129.184L171.417 125.884C171.833 125.484 172.113 125.14 172.257 124.852C172.401 124.556 172.473 124.26 172.473 123.964C172.473 123.524 172.317 123.184 172.005 122.944C171.701 122.696 171.261 122.572 170.685 122.572C169.757 122.572 169.041 122.876 168.537 123.484L167.721 122.776C168.049 122.376 168.477 122.064 169.005 121.84C169.541 121.616 170.137 121.504 170.793 121.504C171.673 121.504 172.373 121.716 172.893 122.14C173.413 122.556 173.673 123.124 173.673 123.844C173.673 124.292 173.577 124.716 173.385 125.116C173.193 125.516 172.829 125.972 172.293 126.484L169.725 128.956H174.033ZM178.416 130.096C177.752 130.096 177.16 129.928 176.64 129.592C176.128 129.248 175.724 128.752 175.428 128.104C175.132 127.456 174.984 126.688 174.984 125.8C174.984 124.912 175.132 124.144 175.428 123.496C175.724 122.848 176.128 122.356 176.64 122.02C177.16 121.676 177.752 121.504 178.416 121.504C179.072 121.504 179.656 121.676 180.168 122.02C180.688 122.356 181.096 122.848 181.392 123.496C181.688 124.144 181.836 124.912 181.836 125.8C181.836 126.688 181.688 127.456 181.392 128.104C181.096 128.752 180.688 129.248 180.168 129.592C179.656 129.928 179.072 130.096 178.416 130.096ZM178.416 129.028C179.088 129.028 179.624 128.752 180.024 128.2C180.432 127.648 180.636 126.848 180.636 125.8C180.636 124.752 180.432 123.952 180.024 123.4C179.624 122.848 179.088 122.572 178.416 122.572C177.736 122.572 177.192 122.848 176.784 123.4C176.384 123.952 176.184 124.752 176.184 125.8C176.184 126.848 176.384 127.648 176.784 128.2C177.192 128.752 177.736 129.028 178.416 129.028ZM189.631 126.268L188.095 127.828V130H186.895V121.6H188.095V126.292L192.655 121.6H194.023L190.435 125.38L194.251 130H192.847L189.631 126.268ZM197.515 123.58C198.395 123.58 199.067 123.796 199.531 124.228C200.003 124.66 200.239 125.304 200.239 126.16V130H199.147V129.16C198.955 129.456 198.679 129.684 198.319 129.844C197.967 129.996 197.547 130.072 197.059 130.072C196.347 130.072 195.775 129.9 195.343 129.556C194.919 129.212 194.707 128.76 194.707 128.2C194.707 127.64 194.911 127.192 195.319 126.856C195.727 126.512 196.375 126.34 197.263 126.34H199.087V126.112C199.087 125.616 198.943 125.236 198.655 124.972C198.367 124.708 197.943 124.576 197.383 124.576C197.007 124.576 196.639 124.64 196.279 124.768C195.919 124.888 195.615 125.052 195.367 125.26L194.887 124.396C195.215 124.132 195.607 123.932 196.063 123.796C196.519 123.652 197.003 123.58 197.515 123.58ZM197.251 129.184C197.691 129.184 198.071 129.088 198.391 128.896C198.711 128.696 198.943 128.416 199.087 128.056V127.168H197.311C196.335 127.168 195.847 127.496 195.847 128.152C195.847 128.472 195.971 128.724 196.219 128.908C196.467 129.092 196.811 129.184 197.251 129.184ZM204.195 130.072C203.675 130.072 203.175 130.004 202.695 129.868C202.215 129.724 201.839 129.544 201.567 129.328L202.047 128.416C202.327 128.616 202.667 128.776 203.067 128.896C203.467 129.016 203.871 129.076 204.279 129.076C205.287 129.076 205.791 128.788 205.791 128.212C205.791 128.02 205.723 127.868 205.587 127.756C205.451 127.644 205.279 127.564 205.071 127.516C204.871 127.46 204.583 127.4 204.207 127.336C203.695 127.256 203.275 127.164 202.947 127.06C202.627 126.956 202.351 126.78 202.119 126.532C201.887 126.284 201.771 125.936 201.771 125.488C201.771 124.912 202.011 124.452 202.491 124.108C202.971 123.756 203.615 123.58 204.423 123.58C204.847 123.58 205.271 123.632 205.695 123.736C206.119 123.84 206.467 123.98 206.739 124.156L206.247 125.068C205.727 124.732 205.115 124.564 204.411 124.564C203.923 124.564 203.551 124.644 203.295 124.804C203.039 124.964 202.911 125.176 202.911 125.44C202.911 125.648 202.983 125.812 203.127 125.932C203.271 126.052 203.447 126.14 203.655 126.196C203.871 126.252 204.171 126.316 204.555 126.388C205.067 126.476 205.479 126.572 205.791 126.676C206.111 126.772 206.383 126.94 206.607 127.18C206.831 127.42 206.943 127.756 206.943 128.188C206.943 128.764 206.695 129.224 206.199 129.568C205.711 129.904 205.043 130.072 204.195 130.072ZM210.699 123.58C211.579 123.58 212.251 123.796 212.715 124.228C213.187 124.66 213.423 125.304 213.423 126.16V130H212.331V129.16C212.139 129.456 211.863 129.684 211.503 129.844C211.151 129.996 210.731 130.072 210.243 130.072C209.531 130.072 208.959 129.9 208.527 129.556C208.103 129.212 207.891 128.76 207.891 128.2C207.891 127.64 208.095 127.192 208.503 126.856C208.911 126.512 209.559 126.34 210.447 126.34H212.271V126.112C212.271 125.616 212.127 125.236 211.839 124.972C211.551 124.708 211.127 124.576 210.567 124.576C210.191 124.576 209.823 124.64 209.463 124.768C209.103 124.888 208.799 125.052 208.551 125.26L208.071 124.396C208.399 124.132 208.791 123.932 209.247 123.796C209.703 123.652 210.187 123.58 210.699 123.58ZM210.435 129.184C210.875 129.184 211.255 129.088 211.575 128.896C211.895 128.696 212.127 128.416 212.271 128.056V127.168H210.495C209.519 127.168 209.031 127.496 209.031 128.152C209.031 128.472 209.155 128.724 209.403 128.908C209.651 129.092 209.995 129.184 210.435 129.184ZM215.831 130.072C215.607 130.072 215.415 129.996 215.255 129.844C215.095 129.684 215.015 129.484 215.015 129.244C215.015 129.012 215.095 128.82 215.255 128.668C215.415 128.508 215.607 128.428 215.831 128.428C216.055 128.428 216.243 128.504 216.395 128.656C216.547 128.808 216.623 129.004 216.623 129.244C216.623 129.484 216.543 129.684 216.383 129.844C216.231 129.996 216.047 130.072 215.831 130.072ZM227.016 127.9H222.552L221.628 130H220.392L224.196 121.6H225.384L229.2 130H227.94L227.016 127.9ZM226.596 126.94L224.784 122.824L222.972 126.94H226.596ZM230.285 121.096H231.437V130H230.285V121.096ZM233.637 121.096H234.789V130H233.637V121.096ZM144.342 141.708C144.542 141.34 144.838 141.06 145.23 140.868C145.622 140.676 146.098 140.58 146.658 140.58V141.696C146.594 141.688 146.506 141.684 146.394 141.684C145.77 141.684 145.278 141.872 144.918 142.248C144.566 142.616 144.39 143.144 144.39 143.832V147H143.238V140.64H144.342V141.708ZM148.078 140.64H149.23V147H148.078V140.64ZM148.654 139.416C148.43 139.416 148.242 139.344 148.09 139.2C147.946 139.056 147.874 138.88 147.874 138.672C147.874 138.464 147.946 138.288 148.09 138.144C148.242 137.992 148.43 137.916 148.654 137.916C148.878 137.916 149.062 137.988 149.206 138.132C149.358 138.268 149.434 138.44 149.434 138.648C149.434 138.864 149.358 139.048 149.206 139.2C149.062 139.344 148.878 139.416 148.654 139.416ZM157.514 140.64V146.136C157.514 147.248 157.238 148.068 156.686 148.596C156.134 149.132 155.31 149.4 154.214 149.4C153.614 149.4 153.042 149.316 152.498 149.148C151.954 148.988 151.514 148.756 151.178 148.452L151.73 147.564C152.026 147.82 152.39 148.02 152.822 148.164C153.262 148.316 153.714 148.392 154.178 148.392C154.922 148.392 155.47 148.216 155.822 147.864C156.182 147.512 156.362 146.976 156.362 146.256V145.752C156.09 146.08 155.754 146.328 155.354 146.496C154.962 146.656 154.534 146.736 154.07 146.736C153.462 146.736 152.91 146.608 152.414 146.352C151.926 146.088 151.542 145.724 151.262 145.26C150.982 144.788 150.842 144.252 150.842 143.652C150.842 143.052 150.982 142.52 151.262 142.056C151.542 141.584 151.926 141.22 152.414 140.964C152.91 140.708 153.462 140.58 154.07 140.58C154.55 140.58 154.994 140.668 155.402 140.844C155.818 141.02 156.158 141.28 156.422 141.624V140.64H157.514ZM154.202 145.728C154.618 145.728 154.99 145.64 155.318 145.464C155.654 145.288 155.914 145.044 156.098 144.732C156.29 144.412 156.386 144.052 156.386 143.652C156.386 143.036 156.182 142.54 155.774 142.164C155.366 141.78 154.842 141.588 154.202 141.588C153.554 141.588 153.026 141.78 152.618 142.164C152.21 142.54 152.006 143.036 152.006 143.652C152.006 144.052 152.098 144.412 152.282 144.732C152.474 145.044 152.734 145.288 153.062 145.464C153.398 145.64 153.778 145.728 154.202 145.728ZM163.111 140.58C163.919 140.58 164.559 140.816 165.031 141.288C165.511 141.752 165.751 142.436 165.751 143.34V147H164.599V143.472C164.599 142.856 164.451 142.392 164.155 142.08C163.859 141.768 163.435 141.612 162.883 141.612C162.259 141.612 161.767 141.796 161.407 142.164C161.047 142.524 160.867 143.044 160.867 143.724V147H159.715V138.096H160.867V141.54C161.107 141.236 161.419 141 161.803 140.832C162.195 140.664 162.631 140.58 163.111 140.58ZM171.459 146.628C171.291 146.772 171.083 146.884 170.835 146.964C170.587 147.036 170.331 147.072 170.067 147.072C169.427 147.072 168.931 146.9 168.579 146.556C168.227 146.212 168.051 145.72 168.051 145.08V141.588H166.971V140.64H168.051V139.248H169.203V140.64H171.027V141.588H169.203V145.032C169.203 145.376 169.287 145.64 169.455 145.824C169.631 146.008 169.879 146.1 170.199 146.1C170.551 146.1 170.851 146 171.099 145.8L171.459 146.628ZM174.676 147.072C174.156 147.072 173.656 147.004 173.176 146.868C172.696 146.724 172.32 146.544 172.048 146.328L172.528 145.416C172.808 145.616 173.148 145.776 173.548 145.896C173.948 146.016 174.352 146.076 174.76 146.076C175.768 146.076 176.272 145.788 176.272 145.212C176.272 145.02 176.204 144.868 176.068 144.756C175.932 144.644 175.76 144.564 175.552 144.516C175.352 144.46 175.064 144.4 174.688 144.336C174.176 144.256 173.756 144.164 173.428 144.06C173.108 143.956 172.832 143.78 172.6 143.532C172.368 143.284 172.252 142.936 172.252 142.488C172.252 141.912 172.492 141.452 172.972 141.108C173.452 140.756 174.096 140.58 174.904 140.58C175.328 140.58 175.752 140.632 176.176 140.736C176.6 140.84 176.948 140.98 177.22 141.156L176.728 142.068C176.208 141.732 175.596 141.564 174.892 141.564C174.404 141.564 174.032 141.644 173.776 141.804C173.52 141.964 173.392 142.176 173.392 142.44C173.392 142.648 173.464 142.812 173.608 142.932C173.752 143.052 173.928 143.14 174.136 143.196C174.352 143.252 174.652 143.316 175.036 143.388C175.548 143.476 175.96 143.572 176.272 143.676C176.592 143.772 176.864 143.94 177.088 144.18C177.312 144.42 177.424 144.756 177.424 145.188C177.424 145.764 177.176 146.224 176.68 146.568C176.192 146.904 175.524 147.072 174.676 147.072ZM183.19 141.708C183.39 141.34 183.686 141.06 184.078 140.868C184.47 140.676 184.946 140.58 185.506 140.58V141.696C185.442 141.688 185.354 141.684 185.242 141.684C184.618 141.684 184.126 141.872 183.766 142.248C183.414 142.616 183.238 143.144 183.238 143.832V147H182.086V140.64H183.19V141.708ZM192.615 143.856C192.615 143.944 192.607 144.06 192.591 144.204H187.431C187.503 144.764 187.747 145.216 188.163 145.56C188.587 145.896 189.111 146.064 189.735 146.064C190.495 146.064 191.107 145.808 191.571 145.296L192.207 146.04C191.919 146.376 191.559 146.632 191.127 146.808C190.703 146.984 190.227 147.072 189.699 147.072C189.027 147.072 188.431 146.936 187.911 146.664C187.391 146.384 186.987 145.996 186.699 145.5C186.419 145.004 186.279 144.444 186.279 143.82C186.279 143.204 186.415 142.648 186.687 142.152C186.967 141.656 187.347 141.272 187.827 141C188.315 140.72 188.863 140.58 189.471 140.58C190.079 140.58 190.619 140.72 191.091 141C191.571 141.272 191.943 141.656 192.207 142.152C192.479 142.648 192.615 143.216 192.615 143.856ZM189.471 141.552C188.919 141.552 188.455 141.72 188.079 142.056C187.711 142.392 187.495 142.832 187.431 143.376H191.511C191.447 142.84 191.227 142.404 190.851 142.068C190.483 141.724 190.023 141.552 189.471 141.552ZM196.039 147.072C195.519 147.072 195.019 147.004 194.539 146.868C194.059 146.724 193.683 146.544 193.411 146.328L193.891 145.416C194.171 145.616 194.511 145.776 194.911 145.896C195.311 146.016 195.715 146.076 196.123 146.076C197.131 146.076 197.635 145.788 197.635 145.212C197.635 145.02 197.567 144.868 197.431 144.756C197.295 144.644 197.123 144.564 196.915 144.516C196.715 144.46 196.427 144.4 196.051 144.336C195.539 144.256 195.119 144.164 194.791 144.06C194.471 143.956 194.195 143.78 193.963 143.532C193.731 143.284 193.615 142.936 193.615 142.488C193.615 141.912 193.855 141.452 194.335 141.108C194.815 140.756 195.459 140.58 196.267 140.58C196.691 140.58 197.115 140.632 197.539 140.736C197.963 140.84 198.311 140.98 198.583 141.156L198.091 142.068C197.571 141.732 196.959 141.564 196.255 141.564C195.767 141.564 195.395 141.644 195.139 141.804C194.883 141.964 194.755 142.176 194.755 142.44C194.755 142.648 194.827 142.812 194.971 142.932C195.115 143.052 195.291 143.14 195.499 143.196C195.715 143.252 196.015 143.316 196.399 143.388C196.911 143.476 197.323 143.572 197.635 143.676C197.955 143.772 198.227 143.94 198.451 144.18C198.675 144.42 198.787 144.756 198.787 145.188C198.787 145.764 198.539 146.224 198.043 146.568C197.555 146.904 196.887 147.072 196.039 147.072ZM205.975 143.856C205.975 143.944 205.967 144.06 205.951 144.204H200.791C200.863 144.764 201.107 145.216 201.523 145.56C201.947 145.896 202.471 146.064 203.095 146.064C203.855 146.064 204.467 145.808 204.931 145.296L205.567 146.04C205.279 146.376 204.919 146.632 204.487 146.808C204.063 146.984 203.587 147.072 203.059 147.072C202.387 147.072 201.791 146.936 201.271 146.664C200.751 146.384 200.347 145.996 200.059 145.5C199.779 145.004 199.639 144.444 199.639 143.82C199.639 143.204 199.775 142.648 200.047 142.152C200.327 141.656 200.707 141.272 201.187 141C201.675 140.72 202.223 140.58 202.831 140.58C203.439 140.58 203.979 140.72 204.451 141C204.931 141.272 205.303 141.656 205.567 142.152C205.839 142.648 205.975 143.216 205.975 143.856ZM202.831 141.552C202.279 141.552 201.815 141.72 201.439 142.056C201.071 142.392 200.855 142.832 200.791 143.376H204.871C204.807 142.84 204.587 142.404 204.211 142.068C203.843 141.724 203.383 141.552 202.831 141.552ZM208.678 141.708C208.878 141.34 209.174 141.06 209.566 140.868C209.958 140.676 210.434 140.58 210.994 140.58V141.696C210.93 141.688 210.842 141.684 210.73 141.684C210.106 141.684 209.614 141.872 209.254 142.248C208.902 142.616 208.726 143.144 208.726 143.832V147H207.574V140.64H208.678V141.708ZM218.3 140.64L215.516 147H214.34L211.556 140.64H212.756L214.94 145.74L217.172 140.64H218.3ZM224.947 143.856C224.947 143.944 224.939 144.06 224.923 144.204H219.763C219.835 144.764 220.079 145.216 220.495 145.56C220.919 145.896 221.443 146.064 222.067 146.064C222.827 146.064 223.439 145.808 223.903 145.296L224.539 146.04C224.251 146.376 223.891 146.632 223.459 146.808C223.035 146.984 222.559 147.072 222.031 147.072C221.359 147.072 220.763 146.936 220.243 146.664C219.723 146.384 219.319 145.996 219.031 145.5C218.751 145.004 218.611 144.444 218.611 143.82C218.611 143.204 218.747 142.648 219.019 142.152C219.299 141.656 219.679 141.272 220.159 141C220.647 140.72 221.195 140.58 221.803 140.58C222.411 140.58 222.951 140.72 223.423 141C223.903 141.272 224.275 141.656 224.539 142.152C224.811 142.648 224.947 143.216 224.947 143.856ZM221.803 141.552C221.251 141.552 220.787 141.72 220.411 142.056C220.043 142.392 219.827 142.832 219.763 143.376H223.843C223.779 142.84 223.559 142.404 223.183 142.068C222.815 141.724 222.355 141.552 221.803 141.552ZM232.547 138.096V147H231.443V145.992C231.187 146.344 230.863 146.612 230.471 146.796C230.079 146.98 229.647 147.072 229.175 147.072C228.559 147.072 228.007 146.936 227.519 146.664C227.031 146.392 226.647 146.012 226.367 145.524C226.095 145.028 225.959 144.46 225.959 143.82C225.959 143.18 226.095 142.616 226.367 142.128C226.647 141.64 227.031 141.26 227.519 140.988C228.007 140.716 228.559 140.58 229.175 140.58C229.631 140.58 230.051 140.668 230.435 140.844C230.819 141.012 231.139 141.264 231.395 141.6V138.096H232.547ZM229.271 146.064C229.671 146.064 230.035 145.972 230.363 145.788C230.691 145.596 230.947 145.332 231.131 144.996C231.315 144.652 231.407 144.26 231.407 143.82C231.407 143.38 231.315 142.992 231.131 142.656C230.947 142.312 230.691 142.048 230.363 141.864C230.035 141.68 229.671 141.588 229.271 141.588C228.863 141.588 228.495 141.68 228.167 141.864C227.847 142.048 227.591 142.312 227.399 142.656C227.215 142.992 227.123 143.38 227.123 143.82C227.123 144.26 227.215 144.652 227.399 144.996C227.591 145.332 227.847 145.596 228.167 145.788C228.495 145.972 228.863 146.064 229.271 146.064Z" fill="white"/>
</svg>
