<svg width="1440" height="209" viewBox="0 0 1440 209" fill="none" xmlns="http://www.w3.org/2000/svg">
<rect width="1440" height="209" fill="black"/>
<path d="M670.644 86.0984L664.128 92.762V102.113H659V66H664.128V86.2058L683.571 66H689.447L674.17 82.2292L690.515 102.113H684.532L670.644 86.0984Z" fill="white"/>
<path d="M727.905 99.2107L729.935 95.3415C732.285 96.9537 735.918 98.136 739.443 98.136C744.037 98.136 745.853 96.7388 745.853 94.3742C745.853 88.248 728.653 93.5144 728.653 82.6592C728.653 77.7152 733.033 74.4908 739.977 74.4908C743.503 74.4908 747.562 75.4581 749.912 76.9628L747.776 80.832C745.319 79.2199 742.648 78.6825 739.977 78.6825C735.704 78.6825 733.567 80.2946 733.567 82.4442C733.567 88.8929 750.767 83.6265 750.767 94.2668C750.767 99.2107 746.28 102.328 739.016 102.328C734.636 102.435 730.149 101.038 727.905 99.2107Z" fill="white"/>
<path d="M781 85.5609V102.112H776.299V98.4582C774.697 100.93 771.599 102.327 767.326 102.327C761.13 102.327 757.284 98.9956 757.284 94.2666C757.284 89.86 760.061 86.3132 768.18 86.3132H775.979V85.3459C775.979 81.1543 773.522 78.7898 768.715 78.7898C765.51 78.7898 762.198 79.972 760.061 81.6917L758.031 77.9299C760.809 75.6729 764.869 74.3832 769.249 74.3832C776.834 74.4907 781 78.1449 781 85.5609ZM776.086 93.7292V89.86H768.501C763.587 89.86 762.198 91.7946 762.198 94.0516C762.198 96.7386 764.441 98.4582 768.18 98.4582C771.919 98.5657 774.911 96.9535 776.086 93.7292Z" fill="white"/>
<path d="M712.095 94.9118V102.22L715.193 100.393V93.0847L712.095 94.9118Z" fill="white"/>
<path d="M720.641 85.991L707.928 78.575L700.877 74.4908L693.933 86.6358L694.04 98.0285L706.646 105.444L707.928 104.692V93.9443L713.59 83.9489L719.359 87.2807V98.0285L720.641 97.2761V85.991Z" fill="white"/>
<path d="M538.377 172.072C543.153 172.072 546.873 168.328 546.873 163.552C546.873 158.776 543.249 155.128 538.425 155.128C533.601 155.128 529.929 158.872 529.929 163.6C529.929 168.328 533.601 172.072 538.377 172.072ZM538.377 170.992C534.201 170.992 531.057 167.728 531.057 163.6C531.057 159.472 534.201 156.208 538.425 156.208C542.649 156.208 545.745 159.376 545.745 163.552C545.745 167.728 542.553 170.992 538.377 170.992ZM538.641 168.544C540.345 168.544 541.761 167.776 542.529 166.576L541.161 165.616C540.561 166.504 539.649 166.912 538.617 166.912C536.793 166.912 535.401 165.616 535.401 163.6C535.401 161.584 536.793 160.288 538.617 160.288C539.649 160.288 540.561 160.696 541.161 161.584L542.529 160.6C541.761 159.424 540.345 158.656 538.641 158.656C535.689 158.656 533.577 160.696 533.577 163.6C533.577 166.504 535.689 168.544 538.641 168.544ZM558.809 169.912L563.945 164.968C566.225 162.784 566.705 161.32 566.705 159.688C566.705 156.808 564.449 155.008 560.945 155.008C558.329 155.008 556.097 155.944 554.801 157.552L556.433 158.968C557.465 157.72 558.929 157.144 560.729 157.144C563.081 157.144 564.305 158.2 564.305 159.928C564.305 160.984 563.969 162.04 562.193 163.768L555.353 170.368V172H567.425V169.912H558.809ZM576.192 172.192C580.104 172.192 583.032 169.072 583.032 163.6C583.032 158.128 580.104 155.008 576.192 155.008C572.256 155.008 569.328 158.128 569.328 163.6C569.328 169.072 572.256 172.192 576.192 172.192ZM576.192 170.056C573.552 170.056 571.728 167.896 571.728 163.6C571.728 159.304 573.552 157.144 576.192 157.144C578.808 157.144 580.632 159.304 580.632 163.6C580.632 167.896 578.808 170.056 576.192 170.056ZM588.457 169.912L593.593 164.968C595.873 162.784 596.353 161.32 596.353 159.688C596.353 156.808 594.097 155.008 590.593 155.008C587.977 155.008 585.745 155.944 584.449 157.552L586.081 158.968C587.113 157.72 588.577 157.144 590.377 157.144C592.729 157.144 593.953 158.2 593.953 159.928C593.953 160.984 593.617 162.04 591.841 163.768L585.001 170.368V172H597.073V169.912H588.457ZM605.84 172.192C609.752 172.192 612.68 169.072 612.68 163.6C612.68 158.128 609.752 155.008 605.84 155.008C601.904 155.008 598.976 158.128 598.976 163.6C598.976 169.072 601.904 172.192 605.84 172.192ZM605.84 170.056C603.2 170.056 601.376 167.896 601.376 163.6C601.376 159.304 603.2 157.144 605.84 157.144C608.456 157.144 610.28 159.304 610.28 163.6C610.28 167.896 608.456 170.056 605.84 170.056ZM634.701 172H637.509L629.877 162.76L637.053 155.2H634.317L625.197 164.584V155.2H622.797V172H625.197V167.656L628.269 164.536L634.701 172ZM644.039 159.16C641.999 159.16 640.103 159.736 638.783 160.792L639.743 162.52C640.727 161.68 642.263 161.152 643.775 161.152C646.055 161.152 647.183 162.28 647.183 164.224V164.68H643.535C639.743 164.68 638.423 166.36 638.423 168.4C638.423 170.608 640.247 172.144 643.127 172.144C645.119 172.144 646.535 171.472 647.303 170.32V172H649.487V164.32C649.487 160.84 647.519 159.16 644.039 159.16ZM643.511 170.368C641.759 170.368 640.703 169.576 640.703 168.304C640.703 167.224 641.351 166.336 643.631 166.336H647.183V168.112C646.607 169.576 645.239 170.368 643.511 170.368ZM657.398 172.144C660.782 172.144 662.894 170.68 662.894 168.376C662.894 163.432 654.83 165.88 654.83 162.88C654.83 161.872 655.814 161.128 657.83 161.128C659.078 161.128 660.35 161.392 661.502 162.136L662.486 160.312C661.382 159.592 659.51 159.16 657.854 159.16C654.59 159.16 652.55 160.696 652.55 162.976C652.55 168.04 660.59 165.568 660.59 168.424C660.59 169.504 659.702 170.152 657.566 170.152C655.91 170.152 654.182 169.6 653.102 168.832L652.142 170.656C653.198 171.496 655.286 172.144 657.398 172.144ZM670.406 159.16C668.366 159.16 666.47 159.736 665.15 160.792L666.11 162.52C667.094 161.68 668.63 161.152 670.142 161.152C672.422 161.152 673.55 162.28 673.55 164.224V164.68H669.902C666.11 164.68 664.79 166.36 664.79 168.4C664.79 170.608 666.614 172.144 669.494 172.144C671.486 172.144 672.902 171.472 673.67 170.32V172H675.854V164.32C675.854 160.84 673.886 159.16 670.406 159.16ZM669.878 170.368C668.126 170.368 667.07 169.576 667.07 168.304C667.07 167.224 667.718 166.336 669.998 166.336H673.55V168.112C672.974 169.576 671.606 170.368 669.878 170.368ZM680.67 172.144C681.534 172.144 682.254 171.448 682.254 170.488C682.254 169.528 681.534 168.856 680.67 168.856C679.782 168.856 679.038 169.528 679.038 170.488C679.038 171.448 679.782 172.144 680.67 172.144ZM704.888 172H707.408L699.776 155.2H697.4L689.792 172H692.264L694.112 167.8H703.04L704.888 172ZM694.952 165.88L698.576 157.648L702.2 165.88H694.952ZM709.579 172H711.883V154.192H709.579V172ZM716.282 172H718.586V154.192H716.282V172ZM731.638 161.416V159.28H729.43V172H731.734V165.664C731.734 162.88 733.27 161.368 735.742 161.368C735.91 161.368 736.078 161.368 736.27 161.392V159.16C734.038 159.16 732.454 159.928 731.638 161.416ZM740.262 156.832C741.174 156.832 741.822 156.16 741.822 155.296C741.822 154.48 741.15 153.832 740.262 153.832C739.374 153.832 738.702 154.504 738.702 155.344C738.702 156.184 739.374 156.832 740.262 156.832ZM739.11 172H741.414V159.28H739.11V172ZM755.797 159.28V161.248C754.717 159.856 752.989 159.16 751.093 159.16C747.421 159.16 744.637 161.632 744.637 165.304C744.637 168.976 747.421 171.472 751.093 171.472C752.917 171.472 754.573 170.824 755.677 169.504V170.512C755.677 173.392 754.309 174.784 751.309 174.784C749.437 174.784 747.589 174.136 746.413 173.128L745.309 174.904C746.701 176.152 749.053 176.8 751.381 176.8C755.701 176.8 757.981 174.76 757.981 170.272V159.28H755.797ZM751.357 169.456C748.789 169.456 746.965 167.752 746.965 165.304C746.965 162.832 748.789 161.176 751.357 161.176C753.901 161.176 755.725 162.832 755.725 165.304C755.725 167.752 753.901 169.456 751.357 169.456ZM769.175 159.16C767.231 159.16 765.647 159.856 764.687 161.08V154.192H762.383V172H764.687V165.448C764.687 162.688 766.271 161.224 768.719 161.224C770.903 161.224 772.151 162.448 772.151 164.944V172H774.455V164.68C774.455 160.936 772.271 159.16 769.175 159.16ZM785.151 169.6C784.671 169.984 784.023 170.2 783.351 170.2C782.079 170.2 781.359 169.432 781.359 168.064V161.176H785.007V159.28H781.359V156.496H779.055V159.28H776.895V161.176H779.055V168.16C779.055 170.728 780.519 172.144 783.087 172.144C784.119 172.144 785.175 171.856 785.871 171.256L785.151 169.6ZM792.305 172.144C795.689 172.144 797.801 170.68 797.801 168.376C797.801 163.432 789.737 165.88 789.737 162.88C789.737 161.872 790.721 161.128 792.737 161.128C793.985 161.128 795.257 161.392 796.409 162.136L797.393 160.312C796.289 159.592 794.417 159.16 792.761 159.16C789.497 159.16 787.457 160.696 787.457 162.976C787.457 168.04 795.497 165.568 795.497 168.424C795.497 169.504 794.609 170.152 792.473 170.152C790.817 170.152 789.089 169.6 788.009 168.832L787.049 170.656C788.105 171.496 790.193 172.144 792.305 172.144ZM809.333 161.416V159.28H807.125V172H809.429V165.664C809.429 162.88 810.965 161.368 813.437 161.368C813.605 161.368 813.773 161.368 813.965 161.392V159.16C811.733 159.16 810.149 159.928 809.333 161.416ZM828.184 165.712C828.184 161.8 825.568 159.16 821.896 159.16C818.224 159.16 815.512 161.872 815.512 165.64C815.512 169.432 818.248 172.144 822.352 172.144C824.464 172.144 826.216 171.424 827.368 170.08L826.096 168.592C825.16 169.624 823.912 170.128 822.424 170.128C819.904 170.128 818.104 168.64 817.816 166.408H828.136C828.16 166.192 828.184 165.904 828.184 165.712ZM821.896 161.104C824.128 161.104 825.736 162.616 825.976 164.752H817.816C818.056 162.592 819.688 161.104 821.896 161.104ZM835.031 172.144C838.415 172.144 840.527 170.68 840.527 168.376C840.527 163.432 832.463 165.88 832.463 162.88C832.463 161.872 833.447 161.128 835.463 161.128C836.711 161.128 837.983 161.392 839.135 162.136L840.119 160.312C839.015 159.592 837.143 159.16 835.487 159.16C832.223 159.16 830.183 160.696 830.183 162.976C830.183 168.04 838.223 165.568 838.223 168.424C838.223 169.504 837.335 170.152 835.199 170.152C833.543 170.152 831.815 169.6 830.735 168.832L829.775 170.656C830.831 171.496 832.919 172.144 835.031 172.144ZM854.903 165.712C854.903 161.8 852.287 159.16 848.615 159.16C844.943 159.16 842.231 161.872 842.231 165.64C842.231 169.432 844.967 172.144 849.071 172.144C851.183 172.144 852.935 171.424 854.087 170.08L852.815 168.592C851.879 169.624 850.631 170.128 849.143 170.128C846.623 170.128 844.823 168.64 844.535 166.408H854.855C854.879 166.192 854.903 165.904 854.903 165.712ZM848.615 161.104C850.847 161.104 852.455 162.616 852.695 164.752H844.535C844.775 162.592 846.407 161.104 848.615 161.104ZM860.31 161.416V159.28H858.102V172H860.406V165.664C860.406 162.88 861.942 161.368 864.414 161.368C864.582 161.368 864.75 161.368 864.942 161.392V159.16C862.71 159.16 861.126 159.928 860.31 161.416ZM877.297 159.28L872.833 169.48L868.465 159.28H866.065L871.633 172H873.985L879.553 159.28H877.297ZM892.848 165.712C892.848 161.8 890.232 159.16 886.56 159.16C882.888 159.16 880.176 161.872 880.176 165.64C880.176 169.432 882.912 172.144 887.016 172.144C889.128 172.144 890.88 171.424 892.032 170.08L890.76 168.592C889.824 169.624 888.576 170.128 887.088 170.128C884.568 170.128 882.768 168.64 882.48 166.408H892.8C892.824 166.192 892.848 165.904 892.848 165.712ZM886.56 161.104C888.792 161.104 890.4 162.616 890.64 164.752H882.48C882.72 162.592 884.352 161.104 886.56 161.104ZM905.743 154.192V161.2C904.687 159.832 903.103 159.16 901.303 159.16C897.583 159.16 894.871 161.752 894.871 165.64C894.871 169.528 897.583 172.144 901.303 172.144C903.175 172.144 904.807 171.424 905.839 169.984V172H908.047V154.192H905.743ZM901.495 170.128C899.047 170.128 897.199 168.352 897.199 165.64C897.199 162.928 899.047 161.176 901.495 161.176C903.919 161.176 905.767 162.928 905.767 165.64C905.767 168.352 903.919 170.128 901.495 170.128Z" fill="white"/>
</svg>
